**ABCDEFGHIJKLMNOPQRSTUVWXYZabcdefghijklmnopqrstuvwxyz**************************
**PARASOLID !"#$%&'()*+,-./:;<=>?@[\]^_`{|}~0123456789**************************
**PART1;
OSMC1.0   MC=x86;
MC_MODEL=x86 Family 6 Model 23 Stepping 10, GenuineIntel;
MC_ID=unknown;
OS=Windows_NT;
OS_RELEASE=unknown;
FRU=Parasolid Version 13.0, build 242, 11-21-2001;
APPL=SolidWorks 2001Plus-2002025;
SITE=;
USER=unknown;
FORMAT=text;
GUISE=transmit;
KEY=D2FS_F_N_A1;
FILE=D2FS_F_N_A1.x_t;
DATE=Fri Oct 18 13:08:56 2013;
**PART2;
SCH=SCH_1300242_13006;
USFLD_SIZE=0;
**PART3;
**END_OF_HEADER*****************************************************************
T51 : TRANSMIT FILE created by modeller version 130024217 SCH_1100000_110040 10
 1 5 2 3 0 0 0 0 0 1e3 1e-8 0 0 0 1 0 1 4 81 1 2 5 5 1 0 0 0 0 0 70 3 0 1 0 0 4
 1 20 4 6 6 1 T11 4 3 0 1 7 8 1 9 0 0 0 12 7 152 10 11 0 0 0 0 1e3 1e-8 4 12 0 1
 0 1 1 13 14 15 16 17 18 19 100 8 4 4 0 0 1 0 0 0 1 0 0 0 1 -.0052 .0055 .0029 1
 1 ?11 9 1 0 1 12 20 1 0 4 0 0 12 12 2197 21 22 0 0 0 0 1e3 1e-8 9 23 7 1 0 1 1
 24 25 26 27 28 29 30 100 20 2 9 0 0 1 0 0 0 1 0 0 0 1 0 0 0 1 0 ?81 1 21 2197 5
 12 0 0 0 0 31 70 22 0 12 0 0 4 2 20 4 32 32 1 T13 24 90 0 12 0 33 0 0 34 0 50 2
5 89 0 35 36 0 0 +.00315 -.0015 .0058 -1 -1334402673828312e-31 0 133440267382831
2e-31 -1 0 30 26 85 0 29 37 0 0 +.00315 .005 .0058 0 0 -1 29 27 1429 0 30 38 0 .
00228 -.0041 .003099999999999965 19 28 24 0 12 34 0 39 V16 29 73 0 ?40 0 41 26 0
 0 12 18 30 1426 0 42 0 43 27 ?12 17 42 0 44 45 46 30 47 48 0 49 +18 43 1325 0 5
0 30 51 38 ?12 17 50 0 52 53 54 43 55 56 0 57 +18 51 1212 0 58 43 59 60 ?12 29 3
8 1328 0 43 60 27 -.0028 -.0041 .0031 29 60 1214 0 51 61 38 .00228 -.0011 .00309
9999999999965 29 61 1210 0 59 62 60 .00138 -.0011 .003099999999999965 18 59 1208
 0 63 51 64 61 ?12 29 62 1203 0 64 65 61 .00138 -.0011 .002699999999999965 18 64
 1201 0 66 59 67 62 ?12 29 65 1106 0 67 68 62 -.0037 -.0011 .0031 18 67 1104 0 6
9 64 70 65 ?12 29 68 1102 0 70 71 65 -.0028 -.0011 .0031 18 70 1100 0 72 67 73 6
8 ?12 29 71 1095 0 73 74 68 -.0037 -.0011 .0027 18 73 1093 0 75 70 76 71 ?12 29
 74 796 0 76 77 71 -.00788 -.0041 .0031 18 76 794 0 78 73 79 74 ?12 29 77 689 0
 79 80 74 -.00788 -.0011 .0031 18 79 687 0 81 76 82 77 ?12 29 80 685 0 82 83 77
 -.00878 -.0011 .0031 18 82 683 0 84 79 85 80 ?12 29 83 678 0 85 86 80 -.00878 -
.0011 .0027 18 85 676 0 87 82 88 83 ?12 29 86 574 0 88 89 83 65e-5 -.0011 7e-4 1
8 88 572 0 90 85 91 86 ?12 29 89 570 0 91 92 86 -85e-5 -.0011 7e-4 18 91 568 0 9
3 88 94 89 ?12 29 92 563 0 94 95 89 65e-5 -.0011 .0051 18 94 561 0 96 91 97 92 ?
12 29 95 451 0 97 98 92 -.00715 -.0011 7e-4 18 97 449 0 99 94 100 95 ?12 29 98 3
13 0 100 101 95 -.009175 -.0011 0 18 100 311 0 102 97 103 98 ?12 29 101 197 0 10
3 104 98 -.0058 .005 .00435 18 103 195 0 105 100 106 101 ?12 29 104 23 0 106 107
 101 .00315 -.0015 .0058 18 106 22 0 108 103 109 104 ?12 29 107 21 0 109 110 104
 -.00965 -.0015 .0058 18 109 20 0 111 106 112 107 ?12 29 110 19 0 112 113 107 -.
00965 .005 .0058 18 112 18 0 114 109 115 110 ?12 29 113 17 0 115 116 110 .00315
 .005 .0058 18 115 16 0 117 112 118 113 ?12 29 116 66 0 118 119 113 .00315 -.001
5 0 18 118 57 0 120 115 121 116 ?12 29 119 67 0 121 122 116 -.00965 -.0015 0 18
 121 58 0 123 118 124 119 ?12 29 122 68 0 124 125 119 -.00965 .005 0 18 124 59 0
 126 121 127 122 ?12 29 125 69 0 127 128 122 .00315 .005 0 18 127 60 0 129 124 1
30 125 ?12 29 128 291 0 130 131 125 -.0058 .0035 .00145 18 130 241 0 132 127 133
 128 ?12 29 131 292 0 133 134 128 -.0046 .0035 .00145 18 133 243 0 135 130 136 1
31 ?12 29 134 293 0 136 137 131 -.0046 .0035 .00435 18 136 245 0 138 133 139 134
 ?12 29 137 294 0 139 140 134 -.0058 .0035 .00435 18 139 247 0 141 136 142 137 ?
12 29 140 295 0 142 143 137 -.0058 .005 .00145 18 142 244 0 144 139 145 140 ?12
 29 143 296 0 145 146 140 -.0046 .005 .00145 18 145 246 0 147 142 148 143 ?12 29
 146 297 0 148 149 143 -.0046 .005 .00435 18 148 248 0 150 145 151 146 ?12 29 14
9 434 0 151 152 146 -.009175 -.0011 .0058 18 151 384 0 153 148 154 149 ?12 29 15
2 435 0 154 155 149 .002675 -.0011 .0058 18 154 386 0 156 151 157 152 ?12 29 155
 436 0 157 158 152 .002675 -.0011 0 18 157 388 0 159 154 160 155 ?12 29 158 438
 0 160 161 155 -.009175 -.0015 .0058 18 160 387 0 162 157 163 158 ?12 29 161 439
 0 163 164 158 .002675 -.0015 .0058 18 163 389 0 165 160 166 161 ?12 29 164 440
 0 166 167 161 .002675 -.0015 0 18 166 391 0 168 163 169 164 ?12 29 167 441 0 16
9 170 164 -.009175 -.0015 1734723475976805e-33 18 169 385 0 171 166 172 167 ?12
 29 170 545 0 172 173 167 -.00715 -.0011 .0051 18 172 501 0 174 169 175 170 ?12
 29 173 546 0 175 176 170 -.00565 -.0011 .0051 18 175 500 0 177 172 178 173 ?12
 29 176 547 0 178 179 173 -.00585 -.0015 .0051 18 178 499 0 180 175 181 176 ?12
 29 179 548 0 181 182 176 -.00695 -.0015 .0051 18 181 496 0 183 178 184 179 ?12
 29 182 550 0 184 185 179 -.00565 -.0011 7e-4 18 184 497 0 186 181 187 182 ?12 2
9 185 551 0 187 188 182 -.00585 -.0015 7e-4 18 187 495 0 189 184 190 185 ?12 29
 188 552 0 190 191 185 -.00695 -.0015 7e-4 18 190 502 0 192 187 193 188 ?12 29 1
91 660 0 193 194 188 -85e-5 -.0011 .0051 18 193 616 0 195 190 196 191 ?12 29 194
 662 0 196 197 191 45e-5 -.0015 .0051 18 196 614 0 198 193 199 194 ?12 29 197 66
3 0 199 200 194 -65e-5 -.0015 .0051 18 199 611 0 201 196 202 197 ?12 29 200 666
 0 202 203 197 45e-5 -.0015 7e-4 18 202 610 0 204 199 205 200 ?12 29 203 667 0 2
05 206 200 -65e-5 -.0015 7e-4 18 205 617 0 207 202 208 203 ?12 29 206 779 0 208
 209 203 -.00788 -.0011 .0027 18 208 728 0 210 205 211 206 ?12 29 209 780 0 211
 212 206 -.00788 -.0045 .0027 18 211 727 0 213 208 214 209 ?12 29 212 781 0 214
 215 209 -.00878 -.0045 .0027 18 214 725 0 216 211 217 212 ?12 29 215 877 0 217
 218 212 -.00878 -.0041 .0031 18 217 823 0 219 214 220 215 ?12 29 218 1082 0 221
 222 215 -.00788 -.0041 .00876143782776614 18 221 998 0 223 220 224 218 ?12 29 2
22 1083 0 220 225 218 -.00878 -.0041 .00876143782776614 18 220 1003 0 226 217 22
1 222 ?12 29 225 1085 0 224 227 222 -.00788 -.0045 .00876143782776615 18 224 100
1 0 228 221 229 225 ?12 29 227 1088 0 229 230 225 -.00878 -.0045 .00876143782776
615 18 229 1004 0 231 224 232 227 ?12 29 230 1196 0 232 233 227 -.0028 -.0011 .0
027 18 232 1145 0 234 229 235 230 ?12 29 233 1197 0 235 236 230 -.0028 -.0045 .0
027 18 235 1144 0 237 232 238 233 ?12 29 236 1198 0 238 239 233 -.0037 -.0045 .0
027 18 238 1142 0 240 235 241 236 ?12 29 239 1304 0 241 242 236 .00228 -.0011 .0
02699999999999965 18 241 1253 0 243 238 244 239 ?12 29 242 1305 0 244 245 239 .0
0228 -.0045 .002699999999999965 18 244 1252 0 246 241 247 242 ?12 29 245 1306 0
 247 248 242 .00138 -.0045 .002699999999999965 18 247 1250 0 249 244 250 245 ?12
 29 248 1409 0 250 251 245 -.0037 -.0041 .0031 18 250 1355 0 252 247 253 248 ?12
 29 251 1510 0 253 254 248 .00138 -.0041 .003099999999999965 18 253 1456 0 255 2
50 256 251 ?12 29 254 1727 0 257 258 251 -.0028 -.0041 .00876143782776612 18 257
 1643 0 259 256 260 254 ?12 29 258 1728 0 256 261 254 -.0037 -.0041 .00876143782
776612 18 256 1648 0 262 253 257 258 ?12 29 261 1730 0 260 263 258 -.0028 -.0045
 .00876143782776613 18 260 1646 0 264 257 265 261 ?12 29 263 1733 0 265 266 261
 -.0037 -.0045 .00876143782776613 18 265 1649 0 267 260 268 263 ?12 29 266 1929
 0 269 270 263 .00228 -.0041 .0087614378277661 18 269 1845 0 271 268 272 266 ?12
 29 270 1930 0 268 273 266 .00138 -.0041 .0087614378277661 18 268 1850 0 274 265
 269 270 ?12 29 273 1932 0 272 275 270 .00228 -.0045 .00876143782776611 18 272 1
848 0 276 269 277 273 ?12 29 275 1935 0 277 0 273 .00138 -.0045 .008761437827766
11 18 277 1851 0 278 272 0 275 ?12 17 278 0 279 249 280 277 276 281 0 282 +15 27
9 1786 0 278 283 0 17 249 0 279 284 278 247 285 286 0 287 +17 280 0 279 278 284
 272 246 288 0 0 -17 276 0 289 271 282 272 278 281 0 290 -16 281 1811 0 ?278 291
 0 292 0 0 12 17 282 0 289 276 274 277 293 294 0 285 +15 289 1869 0 274 295 0 17
 274 0 289 282 271 268 46 296 0 293 -17 293 0 297 255 285 268 282 294 0 298 -16
 294 1831 0 ?282 296 291 299 0 0 12 17 285 0 297 293 287 277 249 286 0 0 -15 297
 1792 0 293 33 0 17 287 0 297 285 300 247 301 302 0 303 +16 286 1776 0 ?249 304
 288 305 0 0 12 16 304 1229 0 ?300 306 286 307 0 0 12 16 288 1766 0 ?246 286 308
 309 0 0 12 30 305 1289 0 286 309 307 0 +.00138 -.0045 .003099999999999965 0 0 -
1 30 309 1290 0 288 310 305 0 +.00228 -.0045 .003099999999999965 0 0 -1 30 307 1
288 0 304 305 311 0 +.00138 -.0011 .003099999999999965 0 0 -1 30 311 1191 0 306
 307 312 0 +-.0037 -.0011 .0027 -1 -2409338161078895e-31 0 16 306 1114 0 ?75 313
 304 311 0 0 12 30 312 1190 0 313 311 314 0 +-.0037 -.0011 .0027 0 -1 0 16 313 1
118 0 ?315 316 306 312 0 0 12 30 314 1189 0 316 312 317 0 +-.0037 -.0045 .0027 1
 0 0 16 316 1122 0 ?318 319 313 314 0 0 12 30 317 1188 0 319 314 320 0 +-.0028 -
.0011 .0027 -510212787052002e-30 1 0 16 319 1126 0 ?321 322 316 317 0 0 12 30 32
0 1187 0 322 317 323 0 +-.0037 -.0011 .0031 -1 -2409338161078895e-31 0 16 322 11
30 0 ?324 325 319 320 0 0 12 30 323 1186 0 325 320 326 0 +-.0037 -.0011 .0031 0
 -1 0 16 325 1133 0 ?327 328 322 323 0 0 12 30 326 1184 0 328 323 329 0 +-.0028
 -.0011 .0031 -510212787052002e-30 1 0 16 328 1326 0 ?72 330 325 326 0 0 12 30 3
29 1183 0 330 326 331 0 +-.0028 -.0011 .0031 0 0 -1 16 330 1117 0 ?234 332 328 3
29 0 0 12 30 331 1182 0 332 329 333 0 +-.0028 -.0045 .0031 0 0 -1 16 332 1564 0
 ?237 334 330 331 0 0 12 30 333 1181 0 334 331 335 0 +-.0037 -.0045 .0031 0 0 -1
 16 334 1574 0 ?240 336 332 333 0 0 12 30 335 1180 0 336 333 337 0 +-.0037 -.001
1 .0031 0 0 -1 16 336 1121 0 ?338 339 334 335 0 0 12 31 337 1072 0 340 335 341 0
 --.00833 -.0041 .0081 0 -1 0 0 0 -1 8e-4 16 340 962 0 ?342 343 344 337 0 0 12 3
1 341 1071 0 339 337 345 0 +-.00833 -.0045 .0081 0 -1 698296672221877e-29 0 6982
96672221877e-29 1 8e-4 16 339 964 0 ?231 346 336 341 0 0 12 30 345 1067 0 346 34
1 347 0 +-.00788 -.0029964776178944 .00876143782776614 0 -1 698296672221877e-29
 16 346 963 0 ?348 344 339 345 0 0 12 30 347 1064 0 344 345 349 0 +-.00878 -.002
9964776178944 .00876143782776614 0 -1 698296672221877e-29 16 344 984 0 ?350 340
 346 347 0 0 12 30 349 872 0 351 347 352 0 +-.00878 -.0041 .0031 -1 0 0 16 351 8
16 0 ?353 354 355 349 0 0 12 30 352 862 0 355 349 356 0 +-.00788 -.0041 .0098848
8578017961 0 0 -1 16 355 908 0 ?78 351 343 352 0 0 12 30 356 861 0 343 352 357 0
 +-.00878 -.0041 .00988488578017961 0 0 -1 16 343 911 0 ?219 355 340 356 0 0 12
 30 357 774 0 354 356 358 0 +-.00878 -.0011 .0027 -1 -2409338161078895e-31 0 16
 354 697 0 ?87 359 351 357 0 0 12 30 358 773 0 359 357 360 0 +-.00878 -.0011 .00
27 0 -1 0 16 359 701 0 ?361 362 354 358 0 0 12 30 360 772 0 362 358 363 0 +-.008
78 -.0045 .0027 1 0 0 16 362 705 0 ?364 365 359 360 0 0 12 30 363 771 0 365 360
 366 0 +-.00788 -.0011 .0027 -510212787052002e-30 1 0 16 365 709 0 ?367 368 362
 363 0 0 12 30 366 770 0 368 363 369 0 +-.00878 -.0011 .0031 -1 -240933816107889
5e-31 0 16 368 713 0 ?370 371 365 366 0 0 12 30 369 769 0 371 366 372 0 +-.00878
 -.0011 .0031 0 -1 0 16 371 716 0 ?373 374 368 369 0 0 12 30 372 767 0 374 369 3
75 0 +-.00788 -.0011 .0031 -510212787052002e-30 1 0 16 374 795 0 ?81 376 371 372
 0 0 12 30 375 766 0 376 372 377 0 +-.00788 -.0011 .0031 0 0 -1 16 376 700 0 ?21
0 378 374 375 0 0 12 30 377 765 0 378 375 379 0 +-.00788 -.0045 .0031 0 0 -1 16
 378 923 0 ?213 380 376 377 0 0 12 30 379 764 0 380 377 381 0 +-.00878 -.0045 .0
031 0 0 -1 16 380 932 0 ?216 382 378 379 0 0 12 30 381 763 0 382 379 383 0 +-.00
878 -.0011 .0031 0 0 -1 16 382 704 0 ?384 385 380 381 0 0 12 30 383 659 0 385 38
1 386 0 +-85e-5 -.0011 7e-4 .4472135954999575 -.894427190999916 0 16 385 582 0 ?
387 388 382 383 0 0 12 30 386 658 0 388 383 389 0 +-65e-5 -.0015 7e-4 1 19712766
77246375e-31 0 16 388 586 0 ?204 390 385 386 0 0 12 30 389 657 0 390 386 391 0 +
65e-5 -.0011 7e-4 .4472135954999575 .894427190999916 0 16 390 590 0 ?392 393 388
 389 0 0 12 30 391 656 0 393 389 394 0 +-85e-5 -.0011 7e-4 -1 -144560289664734e-
30 0 16 393 594 0 ?93 395 390 391 0 0 12 30 394 655 0 395 391 396 0 +-85e-5 -.00
11 .0051 .4472135954999575 -.894427190999916 0 16 395 598 0 ?397 398 393 394 0 0
 12 30 396 654 0 398 394 399 0 +-65e-5 -.0015 .0051 1 1971276677246375e-31 0 16
 398 601 0 ?198 400 395 396 0 0 12 30 399 653 0 400 396 401 0 +65e-5 -.0011 .005
1 .4472135954999575 .894427190999916 0 16 400 604 0 ?402 403 398 399 0 0 12 30 4
01 652 0 403 399 404 0 +-85e-5 -.0011 .0051 -1 -144560289664734e-30 0 16 403 607
 0 ?405 406 400 401 0 0 12 30 404 651 0 406 401 407 0 +-85e-5 -.0011 .0051 0 0 -
1 16 406 585 0 ?408 409 403 404 0 0 12 30 407 650 0 409 404 410 0 +65e-5 -.0011
 .0051 0 0 -1 16 409 597 0 ?90 411 406 407 0 0 12 30 410 649 0 411 407 412 0 +45
e-5 -.0015 .0051 0 0 -1 16 411 593 0 ?413 414 409 410 0 0 12 30 412 648 0 414 41
0 415 0 +-65e-5 -.0015 .0051 0 0 -1 16 414 589 0 ?416 417 411 412 0 0 12 30 415
 544 0 417 412 418 0 +-.00715 -.0011 7e-4 .4472135954999575 -.894427190999916 0
 16 417 467 0 ?419 420 414 415 0 0 12 30 418 543 0 420 415 421 0 +-.00695 -.0015
 7e-4 1 1971276677246375e-31 0 16 420 471 0 ?189 422 417 418 0 0 12 30 421 542 0
 422 418 423 0 +-.00565 -.0011 7e-4 .4472135954999575 .894427190999916 0 16 422
 475 0 ?186 424 420 421 0 0 12 30 423 541 0 424 421 425 0 +-.00715 -.0011 7e-4 -
1 -144560289664734e-30 0 16 424 479 0 ?426 427 422 423 0 0 12 30 425 540 0 427 4
23 428 0 +-.00715 -.0011 .0051 .4472135954999575 -.894427190999916 0 16 427 483
 0 ?429 430 424 425 0 0 12 30 428 539 0 430 425 431 0 +-.00695 -.0015 .0051 1 19
71276677246375e-31 0 16 430 486 0 ?180 432 427 428 0 0 12 30 431 538 0 432 428 4
33 0 +-.00565 -.0011 .0051 .4472135954999575 .894427190999916 0 16 432 489 0 ?17
7 434 430 431 0 0 12 30 433 537 0 434 431 435 0 +-.00715 -.0011 .0051 -1 -144560
289664734e-30 0 16 434 492 0 ?174 436 432 433 0 0 12 30 435 536 0 436 433 437 0
 +-.00715 -.0011 .0051 0 0 -1 16 436 470 0 ?438 439 434 435 0 0 12 30 437 535 0
 439 435 440 0 +-.00565 -.0011 .0051 0 0 -1 16 439 482 0 ?441 442 436 437 0 0 12
 30 440 534 0 442 437 443 0 +-.00585 -.0015 .0051 0 0 -1 16 442 478 0 ?444 445 4
39 440 0 0 12 30 443 533 0 445 440 446 0 +-.00695 -.0015 .0051 0 0 -1 16 445 474
 0 ?447 448 442 443 0 0 12 30 446 433 0 448 443 449 0 +-.009175 -.0015 .0058 0 0
 -1 16 448 372 0 ?171 450 445 446 0 0 12 30 449 431 0 450 446 451 0 +.002675 -.0
015 .0058 0 0 1 16 450 378 0 ?165 452 448 449 0 0 12 30 451 429 0 452 449 453 0
 +-.009175 -.0011 .0058 0 0 -1 16 452 356 0 ?102 454 450 451 0 0 12 30 453 428 0
 454 451 455 0 +-.009175 -.0011 1734723475976805e-33 1 1097926250618232e-31 -146
3901667490976e-31 16 454 368 0 ?456 457 452 453 0 0 12 30 455 427 0 457 453 458
 0 +.002675 -.0011 .0058 0 0 1 16 457 364 0 ?459 460 454 455 0 0 12 30 458 426 0
 460 455 461 0 +-.009175 -.0011 .0058 -1 -1097926250618232e-31 -1463901667490976
e-31 16 460 360 0 ?462 463 457 458 0 0 12 30 461 425 0 464 458 465 0 +-.009175 -
.0011 .0058 118584612615602e-30 -1 0 16 464 363 0 ?162 466 467 461 0 0 12 30 465
 424 0 467 461 468 0 +.002675 -.0011 .0058 118584612615602e-30 -1 0 16 467 367 0
 ?469 464 470 465 0 0 12 30 468 423 0 470 465 471 0 +.002675 -.0011 0 1185846126
15602e-30 -1 0 16 470 371 0 ?168 467 463 468 0 0 12 30 471 422 0 463 468 472 0 +
-.009175 -.0011 1734723475976805e-33 118584612615602e-30 -1 0 16 463 359 0 ?473
 470 460 471 0 0 12 30 472 290 0 466 471 474 0 +-.0058 .005 .00145 0 0 1 16 466
 229 0 ?105 475 464 472 0 0 12 30 474 289 0 475 472 476 0 +-.0058 .005 .00435 1
 0 0 16 475 232 0 ?477 478 466 474 0 0 12 30 476 288 0 478 474 479 0 +-.0046 .00
5 .00145 0 0 -1 16 478 235 0 ?480 481 475 476 0 0 12 30 479 287 0 481 476 482 0
 +-.0058 .005 .00145 -1 0 0 16 481 238 0 ?483 484 478 479 0 0 12 30 482 286 0 48
4 479 485 0 +-.0058 .0035 .00145 0 0 1 16 484 213 0 ?486 487 481 482 0 0 12 30 4
85 285 0 487 482 488 0 +-.0058 .0035 .00435 1 0 0 16 487 225 0 ?489 490 484 485
 0 0 12 30 488 284 0 490 485 491 0 +-.0046 .0035 .00145 0 0 -1 16 490 221 0 ?492
 493 487 488 0 0 12 30 491 283 0 493 488 494 0 +-.0058 .0035 .00145 -1 0 0 16 49
3 217 0 ?495 496 490 491 0 0 12 30 494 282 0 497 491 498 0 +-.0058 .0035 .00145
 -135525271560688e-30 1 0 16 497 220 0 ?144 499 500 494 0 0 12 30 498 281 0 500
 494 501 0 +-.0046 .0035 .00145 -135525271560688e-30 1 0 16 500 224 0 ?147 497 5
02 498 0 0 12 30 501 280 0 502 498 503 0 +-.0046 .0035 .00435 -135525271560688e-
30 1 0 16 502 228 0 ?150 500 496 501 0 0 12 30 503 279 0 496 501 504 0 +-.0058 .
0035 .00435 -135525271560688e-30 1 0 16 496 216 0 ?505 502 493 503 0 0 12 31 504
 188 0 499 503 506 0 +-.0065 0 0 0 0 -1 -1 0 0 7e-4 16 499 168 0 ?507 508 497 50
4 0 0 12 31 506 187 0 508 504 509 0 +-.0065 0 .0058 0 0 -1 -1 0 0 7e-4 16 508 16
5 0 ?510 511 499 506 0 0 12 31 509 150 0 511 506 512 0 +0 0 0 0 0 -1 -1 0 0 7e-4
 16 511 130 0 ?513 514 508 509 0 0 12 31 512 149 0 514 509 515 0 +0 0 .0058 0 0
 -1 -1 0 0 7e-4 16 514 127 0 ?516 517 511 512 0 0 12 30 515 65 0 517 512 518 0 +
.00315 -.0015 0 -1334402673828312e-31 1 0 16 517 53 0 ?519 520 514 515 0 0 12 30
 518 64 0 520 515 521 0 +.00315 .005 0 -1 -135525271560688e-30 0 16 520 49 0 ?12
6 522 517 518 0 0 12 30 521 63 0 522 518 523 0 +-.00965 -.0015 0 266880534765662
5e-31 -1 0 16 522 45 0 ?123 524 520 521 0 0 12 30 523 62 0 525 521 526 0 +.00315
 -.0015 0 1 118584612615602e-30 0 16 525 41 0 ?527 528 524 523 524 524 12 30 526
 5 0 528 523 529 0 +.00315 -.0015 .0058 -1334402673828312e-31 1 0 16 528 4 0 ?53
0 531 525 526 0 0 12 30 529 8 0 531 526 532 0 +.00315 .005 .0058 -1 -13552527156
0688e-30 0 16 531 7 0 ?114 533 528 529 0 0 12 30 532 11 0 533 529 534 0 +-.00965
 -.0015 .0058 2668805347656625e-31 -1 0 16 533 10 0 ?111 535 531 532 0 0 12 30 5
34 14 0 536 532 537 0 +.00315 -.0015 .0058 1 118584612615602e-30 0 16 536 13 0 ?
538 539 535 534 535 535 12 30 537 82 0 539 534 540 0 +.00315 -.0015 .0058 0 0 -1
 16 539 70 0 ?541 542 536 537 0 0 12 30 540 83 0 542 537 37 0 +-.00965 -.0015 .0
058 0 0 -1 16 542 71 0 ?543 41 539 540 0 0 12 30 37 84 0 41 540 26 0 +-.00965 .0
05 .0058 0 0 -1 16 41 72 0 ?544 29 542 37 0 0 12 17 544 0 545 123 546 124 547 41
 0 548 +15 545 76 0 123 549 0 17 123 0 545 550 544 121 548 522 0 543 +17 546 0 5
45 544 550 112 111 533 0 0 -17 547 0 551 117 126 112 544 41 0 546 -17 548 0 552
 129 553 124 123 522 0 0 -15 552 40 0 554 555 0 17 129 0 552 556 548 127 126 520
 0 40 -17 553 0 552 548 473 121 527 525 0 0 -17 473 0 552 553 554 169 557 463 0
 527 +17 527 0 558 559 543 169 553 525 0 0 +15 558 346 0 527 560 0 17 559 0 558
 561 527 160 171 448 0 538 -17 543 0 558 527 561 121 550 542 0 553 +17 561 0 558
 543 559 109 538 536 0 0 -17 550 0 545 546 123 109 543 542 0 561 -17 538 0 562 5
63 111 160 561 536 0 0 +15 562 341 0 563 564 565 17 563 0 562 566 538 151 162 46
4 0 0 -17 111 0 562 538 114 109 546 533 0 550 +17 114 0 562 111 530 112 117 531
 0 547 +17 530 0 562 114 108 115 567 528 0 568 +17 117 0 551 40 547 115 114 531
 0 530 -15 551 78 0 126 569 0 17 40 0 551 126 117 127 568 29 0 519 +17 126 0 551
 547 40 124 129 520 0 544 +17 568 0 570 567 519 115 40 29 0 0 -17 519 0 570 568
 541 127 556 517 0 0 +15 570 80 0 519 35 0 17 541 0 570 519 567 118 571 539 0 55
6 +17 556 0 552 572 129 118 519 517 0 0 -17 572 0 552 573 556 166 120 524 0 0 -1
7 573 0 552 554 572 157 168 470 0 0 -17 120 0 574 571 575 118 572 524 0 541 +16
 524 309 0 ?120 525 522 523 525 525 12 15 574 74 0 576 577 0 17 571 0 574 576 12
0 106 541 539 0 567 -17 575 0 574 120 576 166 165 450 0 572 -17 576 0 574 575 57
1 163 108 535 0 0 -17 165 0 578 156 168 163 575 450 0 469 +15 578 403 0 165 579
 0 17 156 0 578 159 165 154 469 467 0 459 -17 168 0 578 165 159 166 573 470 0 57
5 +17 469 0 562 108 566 163 156 467 0 576 +17 108 0 562 530 469 106 576 535 0 57
1 +17 566 0 562 469 563 154 462 460 0 0 -17 462 0 580 102 459 151 566 460 0 563
 +15 580 410 0 102 581 582 17 102 0 580 456 462 100 153 452 0 557 +17 459 0 580
 462 456 154 159 457 0 566 +17 456 0 580 459 102 157 554 454 0 573 +17 159 0 578
 168 156 157 459 457 0 456 -17 554 0 552 473 573 100 456 454 0 0 -17 153 0 583 1
62 557 151 102 452 0 462 -17 557 0 583 153 171 100 473 463 0 554 -15 583 395 0 1
71 584 0 17 171 0 583 557 162 169 559 448 0 473 +17 162 0 583 171 153 160 563 46
4 0 559 +14 584 392 585 ?579 586 583 24 587 -0 0 579 586 39 81 1 585 1972 588 58
4 0 0 589 590 591 14 579 400 590 ?592 584 578 24 593 -0 0 592 584 39 14 586 265
 589 ?584 594 595 24 596 +0 0 584 594 39 50 587 416 0 584 593 596 0 +-.009175 -.
0011 .0058 -1 -118584612615602e-30 0 118584612615602e-30 -1 0 13 39 25 0 0 0 0 0
 0 28 33 14 33 1794 597 ?283 0 297 24 598 -0 0 283 0 39 81 1 597 1942 588 33 0 0
 0 599 600 14 283 1787 599 ?601 33 279 24 602 -0 0 601 33 39 50 598 1283 0 33 60
2 603 0 +.00138 -.0011 .003099999999999965 1 0 0 0 0 -1 50 602 1284 0 283 604 59
8 0 +.00138 -.0045 .003099999999999965 0 1 0 0 0 1 50 603 1179 0 605 598 606 0 +
-.0037 -.0011 .0027 0 0 -1 -1 0 0 14 605 1169 607 ?608 609 610 24 603 +0 0 608 6
09 39 50 606 1178 0 611 603 612 0 +-.0037 -.0011 .0031 0 0 -1 -1 0 0 14 611 1332
 613 ?581 614 615 24 606 -0 0 581 614 39 50 612 1177 0 616 606 617 0 +-.0028 -.0
011 .0031 -1 -510212787052002e-30 0 510212787052002e-30 -1 0 14 616 1569 618 ?61
9 620 621 24 612 -0 0 619 620 39 50 617 1176 0 620 612 622 0 +-.0037 -.0045 .003
1 0 1 0 0 0 1 14 620 1585 623 ?616 624 625 24 617 -0 0 616 624 39 50 622 1175 0
 624 617 626 0 +-.0037 -.0011 .0031 1 0 0 0 0 -1 14 624 1592 627 ?620 628 629 24
 622 -0 0 620 628 39 51 626 1053 0 609 622 630 0 +-.00833 -.002996477617894405 .
0081 0 -1 698296672221877e-29 8e-4 0 -698296672221877e-29 -1 14 609 1019 631 ?60
5 632 633 24 626 +0 0 605 632 39 50 630 859 0 634 626 635 0 +-.00878 -.0041 .009
88488578017961 0 -1 0 0 0 -1 14 634 920 636 ?637 638 639 24 630 -0 0 637 638 39
 50 635 762 0 632 630 640 0 +-.00878 -.0011 .0027 0 0 -1 -1 0 0 14 632 752 641 ?
609 642 643 24 635 +0 0 609 642 39 50 640 761 0 637 635 644 0 +-.00878 -.0011 .0
031 0 0 -1 -1 0 0 14 637 800 645 ?560 634 646 24 640 -0 0 560 634 39 50 644 760
 0 638 640 647 0 +-.00788 -.0011 .0031 -1 -510212787052002e-30 0 510212787052002
e-30 -1 0 14 638 928 648 ?634 649 650 24 644 -0 0 634 649 39 50 647 759 0 649 64
4 651 0 +-.00878 -.0045 .0031 0 1 0 0 0 1 14 649 942 652 ?638 653 654 24 647 -0
 0 638 653 39 50 651 758 0 653 647 655 0 +-.00878 -.0011 .0031 1 0 0 0 0 -1 14 6
53 948 656 ?649 581 657 24 651 -0 0 649 581 39 50 655 647 0 642 651 658 0 +-65e-
5 -.0015 7e-4 0 0 1 1 0 0 14 642 637 659 ?632 660 661 24 655 -0 0 632 660 39 50
 658 646 0 660 655 662 0 +-65e-5 -.0015 .0051 0 0 1 1 0 0 14 660 634 663 ?642 66
4 665 24 658 +0 0 642 664 39 50 662 644 0 664 658 666 0 +65e-5 -.0011 .0051 -.89
4427190999916 .4472135954999575 0 -.4472135954999575 -.894427190999916 0 14 664
 626 667 ?660 668 669 24 662 -0 0 660 668 39 50 666 643 0 668 662 670 0 +-65e-5
 -.0015 .0051 -1971276677246375e-31 1 0 -1 -1971276677246375e-31 0 14 668 622 67
1 ?664 672 673 24 666 -0 0 664 672 39 50 670 642 0 672 666 674 0 +-85e-5 -.0011
 .0051 .894427190999916 .4472135954999575 0 -.4472135954999575 .894427190999916
 0 14 672 618 675 ?668 676 677 24 670 -0 0 668 676 39 50 674 532 0 676 670 678 0
 +-.00695 -.0015 7e-4 0 0 1 1 0 0 14 676 522 679 ?672 680 681 24 674 -0 0 672 68
0 39 50 678 531 0 680 674 682 0 +-.00695 -.0015 .0051 0 0 1 1 0 0 14 680 519 683
 ?676 684 685 24 678 +0 0 676 684 39 50 682 529 0 684 678 686 0 +-.00565 -.0011
 .0051 -.894427190999916 .4472135954999575 0 -.4472135954999575 -.89442719099991
6 0 14 684 511 687 ?680 688 689 24 682 -0 0 680 688 39 50 686 528 0 688 682 690
 0 +-.00695 -.0015 .0051 -1971276677246375e-31 1 0 -1 -1971276677246375e-31 0 14
 688 507 691 ?684 592 692 24 686 -0 0 684 592 39 50 690 527 0 592 686 693 0 +-.0
0715 -.0011 .0051 .894427190999916 .4472135954999575 0 -.4472135954999575 .89442
7190999916 0 14 592 503 694 ?688 579 695 24 690 -0 0 688 579 39 50 693 420 0 581
 690 593 0 +-.009175 -.0011 1734723475976805e-33 1097926250618232e-31 -1 0 1 109
7926250618232e-31 0 14 581 1219 696 ?653 611 697 24 693 +0 0 653 611 39 50 593 4
18 0 579 693 587 0 +.002675 -.0011 .0058 1 118584612615602e-30 0 -11858461261560
2e-30 1 0 81 1 696 1952 588 581 0 0 613 656 698 15 697 1094 0 69 581 699 17 69 0
 697 700 75 67 338 336 0 701 -15 699 562 0 90 581 702 17 90 0 699 93 96 88 703 4
09 0 392 +15 702 462 0 704 581 580 17 704 0 702 441 705 175 174 434 0 0 -17 441
 0 702 426 704 184 706 439 0 0 +17 705 0 702 704 426 172 438 436 0 0 -17 174 0 6
85 429 177 172 704 434 0 707 +15 685 521 0 429 680 0 17 429 0 685 180 174 181 70
7 427 0 708 +17 177 0 685 174 180 175 709 432 0 706 +17 707 0 695 438 708 172 42
9 427 0 705 -15 695 506 0 419 592 0 17 438 0 695 419 707 97 705 436 0 426 +17 70
8 0 695 707 419 181 447 445 0 0 -17 419 0 695 708 438 190 99 417 0 0 +17 447 0 6
92 189 183 190 708 445 0 419 +15 692 510 0 189 688 0 17 189 0 692 710 447 187 19
2 420 0 444 +17 183 0 692 447 710 181 180 430 0 429 -17 710 0 692 183 189 178 44
4 442 0 709 -17 180 0 685 177 429 178 183 430 0 710 +17 444 0 689 186 709 187 71
0 442 0 711 +17 709 0 689 444 706 178 177 432 0 0 -15 689 514 0 186 684 0 17 706
 0 689 709 186 175 441 439 0 704 -17 186 0 689 706 444 184 711 422 0 712 +17 711
 0 681 192 712 187 186 422 0 0 -17 712 0 681 711 99 184 426 424 0 441 -15 681 52
4 0 99 676 0 17 99 0 681 712 192 97 419 417 0 438 -17 426 0 702 705 441 97 712 4
24 0 0 +17 192 0 681 99 711 190 189 420 0 447 -17 93 0 699 195 90 91 713 393 0 4
08 +17 96 0 699 90 195 94 405 403 0 402 -17 703 0 669 714 392 94 90 409 0 0 -17
 392 0 669 703 413 88 715 390 0 713 +15 669 629 0 392 664 0 17 413 0 669 392 714
 202 716 411 0 715 +17 715 0 661 207 713 202 392 390 0 0 -17 713 0 661 715 717 8
8 93 393 0 0 -15 661 639 0 717 642 0 17 717 0 661 713 207 91 387 385 0 0 -17 207
 0 661 717 715 205 204 388 0 416 -17 387 0 677 718 408 205 717 385 0 0 +15 677 6
21 0 387 672 0 17 718 0 677 719 387 199 416 414 0 0 -17 408 0 677 387 719 91 195
 406 0 717 +17 719 0 677 408 718 193 397 395 0 0 -17 195 0 699 96 93 193 408 406
 0 405 -17 405 0 665 397 402 193 96 403 0 719 +15 665 636 0 397 660 0 17 397 0 6
65 198 405 199 719 395 0 718 +17 402 0 665 405 198 94 714 400 0 703 +17 198 0 66
5 402 397 196 201 398 0 716 +17 714 0 669 413 703 196 402 400 0 0 -17 201 0 673
 416 716 199 198 398 0 397 -17 716 0 673 201 204 196 413 411 0 714 -15 673 625 0
 204 668 0 17 204 0 673 716 416 202 207 388 0 413 +17 416 0 673 204 201 205 718
 414 0 387 +17 700 0 697 234 69 70 324 322 0 720 -17 75 0 697 69 234 73 721 306
 0 722 +17 338 0 629 315 701 73 69 336 0 0 +17 701 0 629 338 252 67 327 325 0 32
4 -15 629 1590 0 723 624 0 17 252 0 629 701 723 250 724 725 0 327 +17 327 0 615
 57 324 250 701 325 0 53 +17 324 0 615 327 72 67 700 322 0 0 +15 615 1330 0 57 6
11 0 17 72 0 615 324 57 70 726 328 0 700 +17 57 0 615 72 327 43 53 727 0 726 -17
 726 0 621 55 720 43 72 328 0 0 -15 621 1567 0 728 616 0 17 55 0 621 728 726 257
 50 56 0 0 -17 720 0 621 726 321 70 234 330 0 0 -17 321 0 621 720 237 232 729 31
9 0 721 +17 234 0 697 75 700 232 720 330 0 321 +17 237 0 621 321 728 235 730 332
 0 318 +17 729 0 610 731 721 235 321 319 0 0 -17 721 0 610 729 722 232 75 306 0
 0 -15 610 1171 0 721 605 0 17 722 0 610 721 731 73 315 313 0 338 -17 731 0 610
 722 729 238 318 316 0 0 -17 315 0 629 732 338 238 722 313 0 731 +17 732 0 629 7
23 315 265 240 334 0 0 -17 723 0 629 252 732 256 733 734 0 724 -17 240 0 625 318
 267 238 732 334 0 315 +15 625 1584 0 267 620 0 17 318 0 625 730 240 235 731 316
 0 729 +17 267 0 625 240 730 265 264 735 0 733 +17 730 0 625 267 318 260 237 332
 0 0 -17 264 0 736 259 733 260 267 735 0 728 -16 735 1609 0 ?267 737 296 738 0 0
 12 17 733 0 736 264 262 265 723 734 0 732 +15 736 1667 0 262 739 0 17 262 0 736
 733 259 256 54 740 0 723 -16 734 1629 0 ?733 740 737 741 0 0 12 16 740 1607 0 ?
54 742 734 743 0 0 12 16 737 1608 0 ?728 734 735 744 0 0 12 30 741 1709 0 734 74
4 745 0 +-.0037 -.0029964776178944 .00876143782776612 0 -1 698296672221877e-29 3
0 744 1712 0 737 738 741 0 +-.0028 -.0029964776178944 .00876143782776612 0 -1 69
8296672221877e-29 30 745 1505 0 746 741 747 0 +.00138 -.0041 .003099999999999965
 -1 0 0 16 746 1449 0 ?45 725 48 745 0 0 12 30 747 1495 0 48 745 748 0 +.00228 -
.0041 .00988488578017961 0 0 -1 16 48 1749 0 ?42 746 742 747 0 0 12 30 748 1494
 0 742 747 749 0 +.00138 -.0041 .00988488578017961 0 0 -1 16 742 1752 0 ?255 48
 740 748 0 0 12 30 749 1404 0 727 748 750 0 +-.0037 -.0041 .0031 -1 0 0 16 727 1
348 0 ?53 751 56 749 0 0 12 30 750 1394 0 56 749 752 0 +-.0028 -.0041 .009884885
78017961 0 0 -1 16 56 1547 0 ?50 727 725 750 0 0 12 30 752 1393 0 725 750 753 0
 +-.0037 -.0041 .00988488578017961 0 0 -1 16 725 1550 0 ?252 56 746 752 0 0 12 3
0 753 1299 0 751 752 754 0 +.00138 -.0011 .002699999999999965 -1 -24093381610788
95e-31 0 16 751 1222 0 ?66 302 727 753 0 0 12 30 754 1298 0 302 753 755 0 +.0013
8 -.0011 .002699999999999965 0 -1 0 16 302 1226 0 ?287 756 751 754 0 0 12 30 755
 1297 0 756 754 757 0 +.00138 -.0045 .002699999999999965 1 0 0 16 756 1230 0 ?28
4 758 302 755 0 0 12 30 757 1296 0 758 755 759 0 +.00228 -.0011 .002699999999999
965 -510212787052002e-30 1 0 16 758 1234 0 ?760 761 756 757 0 0 12 30 759 1295 0
 761 757 762 0 +.00138 -.0011 .003099999999999965 -1 -2409338161078895e-31 0 16
 761 1238 0 ?763 764 758 759 0 0 12 30 762 1294 0 764 759 765 0 +.00138 -.0011 .
003099999999999965 0 -1 0 16 764 1241 0 ?766 767 761 762 0 0 12 30 765 1292 0 76
7 762 310 0 +.00228 -.0011 .003099999999999965 -510212787052002e-30 1 0 16 767 1
427 0 ?58 308 764 765 0 0 12 30 310 1291 0 308 765 309 0 +.00228 -.0011 .0030999
99999999965 0 0 -1 16 308 1225 0 ?243 288 767 310 0 0 12 17 243 0 768 66 769 241
 770 308 0 760 +15 768 1202 0 63 581 0 17 66 0 768 63 243 64 771 751 0 301 +17 7
69 0 768 243 63 51 763 761 0 770 -17 770 0 772 773 760 51 243 308 0 0 -17 760 0
 772 770 246 241 774 758 0 771 +15 772 1769 0 290 601 0 17 246 0 772 760 290 244
 280 288 0 284 +17 774 0 775 303 771 244 760 758 0 0 -17 771 0 775 774 301 241 6
6 751 0 0 -15 775 1279 0 771 608 0 17 301 0 775 771 303 64 287 302 0 300 -17 303
 0 775 301 774 247 284 756 0 0 -17 300 0 297 287 776 64 63 304 0 0 +17 776 0 297
 300 255 59 766 764 0 763 -17 63 0 768 769 66 59 300 304 0 776 -17 255 0 297 776
 293 253 298 742 0 766 +17 766 0 777 49 763 253 776 764 0 45 +17 763 0 777 766 5
8 59 769 761 0 0 +15 777 1431 0 49 614 0 17 58 0 777 763 49 51 773 767 0 769 +17
 49 0 777 58 766 30 45 746 0 773 -17 773 0 772 47 770 30 58 767 0 0 -17 47 0 772
 290 773 269 42 48 0 0 -17 290 0 772 246 47 272 271 291 0 280 +17 271 0 289 274
 276 269 290 291 0 46 -16 291 1810 0 ?290 294 281 778 0 0 12 30 778 1914 0 291 2
92 299 0 +.00228 -.0029964776178944 .0087614378277661 0 -1 698296672221877e-29 3
1 292 1918 0 281 779 778 0 +.00183 -.0045 .0081 0 -1 698296672221877e-29 0 69829
6672221877e-29 1 8e-4 30 299 1911 0 294 778 743 0 +.00138 -.0029964776178944 .00
87614378277661 0 -1 698296672221877e-29 31 743 1717 0 740 299 738 0 --.00325 -.0
041 .0081 0 -1 0 0 0 -1 8e-4 31 738 1716 0 735 743 744 0 +-.00325 -.0045 .0081 0
 -1 698296672221877e-29 0 698296672221877e-29 1 8e-4 31 779 1919 0 296 0 292 0 -
.00183 -.0041 .0081 0 -1 0 0 0 -1 8e-4 16 296 1809 0 ?46 735 294 779 0 0 12 17 4
6 0 44 42 298 269 274 296 0 47 +15 44 1761 0 46 628 0 17 298 0 44 46 45 268 255
 742 0 0 -17 45 0 44 298 42 253 49 746 0 0 +14 628 1762 780 ?624 601 44 24 781 -
0 0 624 601 39 81 1 780 1945 588 628 0 0 782 627 783 14 601 1771 782 ?628 283 77
2 24 604 -0 0 628 283 39 50 781 1492 0 628 784 785 0 +.00138 -.0041 .00988488578
017961 0 -1 0 0 0 -1 51 784 1698 0 739 786 781 0 +-.00325 -.002996477617894405 .
0081 0 -1 698296672221877e-29 8e-4 0 -698296672221877e-29 -1 50 785 1391 0 619 7
81 787 0 +-.0037 -.0041 .00988488578017961 0 -1 0 0 0 -1 14 619 1560 788 ?614 61
6 52 24 785 -0 0 614 616 39 50 787 1287 0 608 785 789 0 +.00138 -.0011 .00269999
9999999965 0 0 -1 -1 0 0 14 608 1277 790 ?739 605 775 24 787 +0 0 739 605 39 50
 789 1286 0 614 787 604 0 +.00138 -.0011 .003099999999999965 0 0 -1 -1 0 0 14 61
4 1433 791 ?611 619 777 24 789 -0 0 611 619 39 50 604 1285 0 601 789 602 0 +.002
28 -.0011 .003099999999999965 -1 -510212787052002e-30 0 510212787052002e-30 -1 0
 81 1 791 1950 588 614 0 0 788 613 792 80 1 588 0 793 8001 0 0 0 0 3 5 0 0 FFFFT
FTFFFFFFF2 81 1 788 1949 588 619 0 0 618 791 794 81 1 613 1951 588 611 0 0 791 6
96 795 83 3 792 0 0 0 83 3 795 0 0 0 81 1 618 1948 588 616 0 0 623 788 796 83 3
 794 0 0 0 81 1 623 1947 588 620 0 0 627 618 797 83 3 796 0 0 0 81 1 627 1946 58
8 624 0 0 780 623 798 83 3 797 0 0 0 83 3 798 0 0 0 79 15 793 SDL/TYSA_COLOUR81
 1 790 1987 588 608 0 0 607 799 800 14 739 1664 799 ?295 608 736 24 784 +0 0 295
 608 39 81 1 799 1988 588 739 0 0 790 801 802 14 295 1866 801 ?0 739 289 24 786
 +0 0 0 739 39 81 1 801 1989 588 295 0 0 799 0 803 51 786 1900 0 295 0 784 0 +.0
0183 -.002996477617894405 .0081 0 -1 698296672221877e-29 8e-4 0 -698296672221877
e-29 -1 83 3 803 0 0 0 83 3 802 0 0 0 81 1 607 1986 588 605 0 0 631 790 804 83 3
 800 0 0 0 81 1 631 1985 588 609 0 0 641 607 805 83 3 804 0 0 0 81 1 641 1984 58
8 632 0 0 659 631 806 83 3 805 0 0 0 81 1 659 1983 588 642 0 0 663 641 807 83 3
 806 0 0 0 81 1 663 1982 588 660 0 0 667 659 808 83 3 807 0 0 0 81 1 667 1981 58
8 664 0 0 671 663 809 83 3 808 0 0 0 81 1 671 1980 588 668 0 0 675 667 810 83 3
 809 0 0 0 81 1 675 1979 588 672 0 0 679 671 811 83 3 810 0 0 0 81 1 679 1978 58
8 676 0 0 683 675 812 83 3 811 0 0 0 81 1 683 1977 588 680 0 0 687 679 813 83 3
 812 0 0 0 81 1 687 1976 588 684 0 0 691 683 814 83 3 813 0 0 0 81 1 691 1975 58
8 688 0 0 694 687 815 83 3 814 0 0 0 81 1 694 1974 588 592 0 0 590 691 816 83 3
 815 0 0 0 81 1 590 1973 588 579 0 0 585 694 817 83 3 816 0 0 0 83 3 817 0 0 0 1
5 52 1559 0 54 619 0 17 54 0 52 50 724 257 262 740 0 55 +17 724 0 52 54 53 256 2
52 725 0 0 -17 53 0 52 724 50 250 57 727 0 0 +81 1 782 1944 588 601 0 0 599 780
 818 81 1 599 1943 588 283 0 0 597 782 819 83 3 818 0 0 0 83 3 819 0 0 0 83 3 78
3 0 0 0 17 284 0 279 280 249 244 303 756 0 774 +17 728 0 621 237 55 260 259 737
 0 730 +17 259 0 736 262 264 257 728 737 0 54 -81 1 656 1953 588 653 0 0 696 652
 820 83 3 698 0 0 0 81 1 652 1954 588 649 0 0 656 648 821 83 3 820 0 0 0 81 1 64
8 1955 588 638 0 0 652 636 822 83 3 821 0 0 0 81 1 636 1956 588 634 0 0 648 645
 823 83 3 822 0 0 0 81 1 645 1957 588 637 0 0 636 824 825 83 3 823 0 0 0 81 1 82
4 1958 588 560 0 0 645 826 827 83 3 825 0 0 0 14 560 348 824 ?35 637 558 24 828
 -577 577 35 637 39 81 1 826 1959 588 35 0 0 824 829 830 83 3 827 0 0 0 14 35 81
 826 ?569 560 570 24 25 -0 0 569 560 39 81 1 829 1960 588 569 0 0 826 831 832 83
 3 830 0 0 0 14 569 79 829 ?549 35 833 24 36 -0 0 549 35 39 81 1 831 1961 588 54
9 0 0 829 834 835 83 3 832 0 0 0 14 549 77 831 ?577 569 545 24 836 -0 0 577 569
 39 81 1 834 1962 588 577 0 0 831 837 838 83 3 835 0 0 0 14 577 75 834 ?564 549
 574 24 828 -560 560 564 549 39 81 1 837 1963 588 564 0 0 834 839 840 83 3 838 0
 0 0 14 564 1 837 ?555 577 562 24 841 +0 0 555 577 39 81 1 839 1964 588 555 0 0
 837 842 843 83 3 840 0 0 0 14 555 39 839 ?844 564 845 24 846 -0 0 844 564 39 81
 1 842 1965 588 844 0 0 839 847 848 83 3 843 0 0 0 14 844 133 842 ?849 555 850 2
4 851 -0 0 849 555 39 81 1 847 1966 588 849 0 0 842 852 853 83 3 848 0 0 0 14 84
9 171 847 ?854 844 855 24 856 -0 0 854 844 39 81 1 852 1967 588 854 0 0 847 857
 858 83 3 853 0 0 0 14 854 249 852 ?859 849 860 24 861 -0 0 859 849 39 81 1 857
 1968 588 859 0 0 852 862 863 83 3 858 0 0 0 14 859 253 857 ?864 854 865 24 866
 -0 0 864 854 39 81 1 862 1969 588 864 0 0 857 867 868 83 3 863 0 0 0 14 864 257
 862 ?594 859 869 24 870 -0 0 594 859 39 81 1 867 1970 588 594 0 0 862 589 871 8
3 3 868 0 0 0 14 594 261 867 ?586 864 872 24 873 -0 0 586 864 39 81 1 589 1971 5
88 586 0 0 867 585 874 83 3 871 0 0 0 83 3 874 0 0 0 15 872 264 0 477 594 0 50 8
73 274 0 594 870 861 0 +-.0058 .0035 .00435 0 0 1 1 0 0 50 870 275 0 864 866 873
 0 +-.0046 .0035 .00145 1 135525271560688e-30 0 -135525271560688e-30 1 0 50 861
 273 0 854 873 856 0 +-.0058 .0035 .00145 -1 -135525271560688e-30 0 135525271560
688e-30 -1 0 51 856 184 0 849 861 851 0 +-.0065 0 .0058 0 0 -1 7e-4 -1 0 0 51 85
1 146 0 844 856 846 0 +0 0 .0058 0 0 -1 7e-4 -1 0 0 50 846 61 0 555 851 841 0 +.
00315 .005 0 0 0 1 1 0 0 50 841 2 0 564 846 828 0 +.00315 .005 .0058 0 0 1 1 0 0
 50 828 86 0 577 841 836 0 +.00315 -.0015 .0058 -118584612615602e-30 1 0 -1 -118
584612615602e-30 0 50 836 87 0 549 828 36 0 +-.00965 -.0015 .0058 1 266880534765
6625e-31 0 -2668805347656625e-31 1 0 50 36 88 0 569 836 25 0 +.00315 .005 .0058
 135525271560688e-30 -1 0 1 135525271560688e-30 0 50 866 276 0 859 596 870 0 +-.
0058 .0035 .00145 0 0 -1 -1 0 0 50 596 277 0 586 587 866 0 +-.0058 .0035 .00435
 0 1 0 0 0 1 17 477 0 872 138 505 148 875 475 0 876 +17 138 0 872 877 477 136 15
0 502 0 878 -17 505 0 872 477 877 103 141 496 0 875 +17 875 0 833 879 876 103 47
7 475 0 0 -17 876 0 833 875 880 148 480 478 0 0 -15 833 193 0 879 569 551 17 880
 0 833 876 879 145 483 481 0 0 -17 480 0 869 135 150 145 876 478 0 880 +15 869 2
60 0 480 864 0 17 135 0 869 878 480 133 147 500 0 492 -17 150 0 869 480 878 148
 138 502 0 477 +17 878 0 869 150 135 136 492 490 0 489 -17 492 0 595 495 489 133
 878 490 0 881 +17 489 0 595 492 486 136 877 487 0 0 +15 595 267 0 486 586 0 17
 486 0 595 489 495 139 882 484 0 0 +17 877 0 872 505 138 139 489 487 0 486 -17 4
95 0 595 486 492 130 881 493 0 0 +17 882 0 860 144 141 130 486 484 0 495 -15 860
 252 0 105 854 0 17 144 0 860 105 882 142 132 497 0 483 +17 141 0 860 882 105 13
9 505 496 0 877 -17 105 0 860 141 144 103 879 466 0 505 +17 879 0 833 880 875 14
2 105 466 0 0 -17 132 0 865 881 483 130 144 497 0 882 -17 483 0 865 132 147 142
 880 481 0 879 +15 865 256 0 483 859 0 17 147 0 865 483 881 145 135 500 0 480 +1
7 881 0 865 147 132 133 495 493 0 0 -15 855 174 0 883 849 884 17 883 0 855 883 8
83 0 510 508 0 0 -15 884 175 0 507 849 0 17 507 0 884 507 507 0 885 499 0 0 +17
 885 0 845 885 885 0 507 499 0 0 -15 845 153 0 885 555 886 15 886 121 0 887 555
 552 17 887 0 886 887 887 0 513 511 0 0 -17 513 0 888 513 513 0 887 511 0 0 +15
 888 137 0 513 844 0 17 510 0 565 510 510 0 883 508 0 0 +15 565 160 0 510 564 88
9 15 889 116 0 516 564 0 17 516 0 889 516 516 0 890 514 0 0 +17 890 0 850 890 89
0 0 516 514 0 0 -15 850 136 0 890 844 888 15 657 946 0 891 653 0 17 891 0 657 21
9 892 220 350 344 0 893 -17 219 0 657 894 891 217 893 343 0 373 +17 892 0 657 89
1 361 229 216 380 0 0 -17 350 0 633 228 226 229 891 344 0 892 +17 893 0 639 342
 353 220 219 343 0 0 -15 639 919 0 342 634 0 17 342 0 639 78 893 221 226 340 0 8
95 +17 353 0 639 893 78 217 896 351 0 0 +17 78 0 639 353 342 76 895 355 0 896 +1
7 896 0 646 81 373 76 353 351 0 897 -15 646 798 0 896 637 0 17 81 0 646 370 896
 79 897 374 0 898 +17 373 0 646 896 370 217 894 371 0 353 +17 897 0 650 895 899
 76 81 374 0 0 -15 650 926 0 348 638 0 17 895 0 650 348 897 221 78 355 0 0 -17 8
99 0 650 897 367 79 210 376 0 0 -17 367 0 650 899 213 208 900 365 0 901 +17 210
 0 582 87 898 208 899 376 0 367 +15 582 677 0 84 581 768 17 87 0 582 84 210 85 9
01 354 0 902 +17 898 0 582 210 84 79 370 368 0 899 -17 84 0 582 898 87 82 384 38
2 0 894 -17 370 0 646 373 81 82 898 368 0 0 +17 384 0 657 361 894 85 84 382 0 0
 +17 894 0 657 384 219 82 373 371 0 370 -17 361 0 657 892 384 214 902 359 0 903
 +17 902 0 643 901 903 85 361 359 0 384 -17 903 0 643 902 900 214 364 362 0 0 -1
5 643 754 0 901 632 0 17 900 0 643 903 901 211 367 365 0 0 -17 364 0 654 904 216
 211 903 362 0 900 +15 654 941 0 231 649 0 17 904 0 654 231 364 224 213 378 0 0
 -17 216 0 654 364 231 214 892 380 0 361 +17 231 0 654 216 904 229 228 339 0 350
 +17 228 0 633 223 350 224 231 339 0 348 -15 633 1022 0 226 609 0 17 223 0 633 2
26 228 221 348 346 0 342 -17 348 0 650 213 895 224 223 346 0 904 +17 213 0 650 3
67 348 211 904 378 0 364 +17 226 0 633 350 223 220 342 340 0 891 -17 901 0 643 9
00 902 208 87 354 0 0 -83 3 600 0 0 0 83 3 591 0 0 0 16 535 329 0 ?108 536 533 5
34 536 536 12 17 567 0 570 541 568 106 530 528 0 0 -19 34 91 0 12 0 28 24 S74 20
 32 2 0 801 21 0 0 0 0 0 0 0 0 0 0 0 0 0 0 0 0 0 0 80 1 5 905 906 8017 0 0 0 0 0
 0 0 0 TTTTTTTTTTTTTF3 84 16 31 D2FS_F_N_A1_BASE79 13 906 SDL/TYSA_NAME81 1 10 1
52 5 7 0 0 0 0 907 70 11 0 7 0 0 4 2 20 4 908 908 1 T13 13 90 0 7 0 909 0 0 910
 0 50 14 89 0 909 911 0 0 +-6e-4 -.002 .00145 1 -232329036961179e-29 0 232329036
961179e-29 1 0 30 15 85 0 18 912 0 0 +-6e-4 -.002 .00145 0 0 -1 29 16 23 0 19 91
3 0 -6e-4 -6e-4 .00145 19 17 24 0 7 910 0 914 V16 18 73 0 ?915 0 916 15 0 0 7 18
 19 22 0 917 0 918 16 ?7 17 917 0 919 920 921 19 922 923 0 924 +18 918 20 0 921
 19 925 913 ?7 17 921 0 919 917 926 918 927 928 0 929 +18 925 18 0 926 918 930 9
31 ?7 29 913 21 0 918 931 16 6e-4 -6e-4 .00145 29 931 19 0 925 932 913 6e-4 -.00
2 .00145 29 932 17 0 930 933 931 -6e-4 -.002 .00145 18 930 16 0 934 925 935 932
 ?7 29 933 66 0 935 936 932 -6e-4 -6e-4 -.00145 18 935 57 0 937 930 938 933 ?7 2
9 936 67 0 938 939 933 6e-4 -6e-4 -.00145 18 938 58 0 940 935 941 936 ?7 29 939
 68 0 941 942 936 6e-4 -.002 -.00145 18 941 59 0 943 938 944 939 ?7 29 942 69 0
 944 0 939 -6e-4 -.002 -.00145 18 944 60 0 945 941 0 942 ?7 17 945 0 946 947 948
 944 943 949 0 915 -15 946 40 0 947 950 0 17 947 0 946 951 945 935 952 953 0 0 -
17 948 0 946 945 951 941 940 954 0 0 -17 943 0 955 956 915 941 945 949 0 957 +16
 949 49 0 ?943 954 953 958 0 0 7 17 915 0 955 943 934 944 959 18 0 952 +15 955 7
8 0 943 960 0 17 934 0 955 915 956 930 926 961 0 920 -17 959 0 962 963 952 930 9
15 18 0 0 -17 952 0 962 959 964 944 947 953 0 0 +15 962 80 0 952 909 0 17 964 0
 962 952 963 935 924 965 0 947 +16 953 53 0 ?952 949 0 966 0 0 7 30 966 65 0 953
 0 958 0 +-6e-4 -.002 -.00145 -232329036961179e-29 -1 0 30 958 64 0 949 966 967
 0 +-6e-4 -.002 -.00145 1 0 0 30 967 63 0 954 958 968 0 +6e-4 -.002 -.00145 -263
306241889336e-29 1 0 16 954 45 0 ?940 969 949 967 0 0 7 31 968 62 0 969 967 970
 0 +1368413066508362e-34 -6e-4 -.00145 0 0 1 -1 0 0 6e-4 16 969 41 0 ?937 971 95
4 968 0 0 7 30 970 5 0 971 968 972 0 +-6e-4 -.002 .00145 -232329036961179e-29 -1
 0 16 971 4 0 ?920 961 969 970 0 0 7 30 972 8 0 961 970 973 0 +-6e-4 -.002 .0014
5 1 0 0 16 961 7 0 ?926 928 971 972 0 0 7 30 973 11 0 928 972 974 0 +6e-4 -.002
 .00145 -263306241889336e-29 1 0 16 928 10 0 ?921 923 961 973 0 0 7 31 974 14 0
 923 973 975 0 +1368413066508362e-34 -6e-4 .00145 0 0 1 -1 0 0 6e-4 16 923 13 0
 ?917 965 928 974 0 0 7 30 975 82 0 965 974 976 0 +-6e-4 -6e-4 .00145 0 0 -1 16
 965 70 0 ?964 977 923 975 0 0 7 30 976 83 0 977 975 912 0 +6e-4 -6e-4 .00145 0
 0 -1 16 977 71 0 ?978 916 965 976 0 0 7 30 912 84 0 916 976 15 0 +6e-4 -.002 .0
0145 0 0 -1 16 916 72 0 ?957 18 977 912 0 0 7 17 957 0 979 940 927 941 956 916 0
 948 +15 979 76 0 940 980 0 17 940 0 979 929 957 938 948 954 0 978 +17 927 0 979
 957 929 925 921 928 0 0 -17 956 0 955 934 943 925 957 916 0 927 -17 929 0 979 9
27 940 918 978 977 0 922 -17 978 0 981 937 922 938 929 977 0 951 +17 922 0 981 9
78 924 918 917 923 0 0 -15 981 74 0 937 982 0 17 924 0 981 922 937 19 964 965 0
 963 -17 937 0 981 924 978 935 951 969 0 964 +17 963 0 962 964 959 19 920 971 0
 0 -17 920 0 919 926 917 930 963 971 0 959 +15 919 3 0 920 983 0 17 926 0 919 92
1 920 925 934 961 0 956 +14 983 1 984 ?950 982 919 13 985 -0 0 950 982 914 81 1
 984 120 588 983 0 0 986 987 988 14 950 39 987 ?0 983 946 13 989 +0 0 0 983 914
 14 982 75 986 ?983 980 981 13 990 -0 0 983 980 914 50 985 2 0 983 989 990 0 +13
68413066508362e-34 -6e-4 .00145 0 0 -1 -1 0 0 13 914 25 0 0 0 0 0 0 17 909 14 90
9 81 991 ?960 0 962 13 14 -0 0 960 0 914 81 1 991 116 588 909 0 0 0 992 993 14 9
60 79 992 ?980 909 955 13 911 -0 0 980 909 914 81 1 992 117 588 960 0 0 991 994
 995 14 980 77 994 ?982 960 979 13 996 -0 0 982 960 914 50 911 88 0 960 996 14 0
 +-6e-4 -.002 .00145 0 1 0 0 0 1 50 996 87 0 980 990 911 0 +6e-4 -.002 .00145 -1
 -263306241889336e-29 0 263306241889336e-29 -1 0 51 990 86 0 982 985 996 0 -1368
413066508362e-34 -6e-4 .00145 0 0 -1 6e-4 -1 0 0 81 1 994 118 588 980 0 0 992 98
6 997 81 1 986 119 588 982 0 0 994 984 998 83 3 997 .176470588235294 .5529411764
70588 .2901960784313725 83 3 998 .176470588235294 .552941176470588 .290196078431
3725 83 3 995 .176470588235294 .552941176470588 .2901960784313725 83 3 993 .1764
70588235294 .552941176470588 .2901960784313725 50 989 61 0 950 0 985 0 +13684130
66508362e-34 -6e-4 -.00145 0 0 -1 -1 0 0 81 1 987 121 588 950 0 0 984 0 999 83 3
 999 .176470588235294 .552941176470588 .2901960784313725 83 3 988 .1764705882352
94 .552941176470588 .2901960784313725 17 951 0 946 948 947 938 937 969 0 0 -19 9
10 91 0 7 0 17 13 S74 20 908 2 0 987 10 0 0 0 0 0 0 0 0 0 0 0 0 0 0 0 0 0 0 84 1
8 907 D2FS_F_N_A1_BUTTON74 20 6 1 0 2 0 0 0 0 0 0 0 0 0 0 0 0 0 0 0 0 0 0 0 1 0
 

